2200 0 1 0           
15 SolidWorks 2017 12 ACIS 22.0 NT 24 Fri Jan 05 08:29:45 2018 
1 9.9999999999999995e-007 1e-010 
-0 body $1 -1 -1 $-1 $2 $-1 $-1 F #
-1 name_attrib-gen-attrib $-1 -1 $-1 $-1 $0 2 1 1 1 1 1 1 1 1 1 1 1 1 1 0 1 1 1 @12 truss center #
-2 lump $3 -1 -1 $-1 $-1 $4 $0 F #
-3 rgb_color-st-attrib $-1 -1 $-1 $-1 $2 2 1 2 1 1 1 1 1 1 1 1 1 1 1 0 1 1 1 0.29803921568627451 0.29803921568627451 0.29803921568627451 #
-4 shell $-1 -1 -1 $-1 $-1 $-1 $5 $-1 $2 F #
-5 face $6 -1 -1 $-1 $7 $8 $4 $-1 $9 reversed single F T -0.61538461538461542 0 -3.1415926535897931 6.7097590896367644e-017 #
-6 integer_attrib-name_attrib-gen-attrib $-1 -1 $-1 $-1 $5 2 1 2 1 1 1 1 1 1 1 1 1 1 1 0 1 1 1 @18 CBORE for M3 SHCS3 0 #
-7 face $10 -1 -1 $-1 $11 $12 $4 $-1 $13 reversed single F T -3.5294117647058219 -1.1764705882352904 -3.1415926535897931 1.2827480612540828e-016 #
-8 loop $-1 -1 -1 $-1 $-1 $14 $5 F unknown #
-9 cone-surface $-1 -1 -1 $-1 7.9999999999999831 7.7499999999999716 6.2882374973414063e-014 0 3.3505562464346481e-016 -1 3.2500000000000027 0 0 1 I I 0 1 3.2500000000000027 forward I I I I #
-10 integer_attrib-name_attrib-gen-attrib $-1 -1 $-1 $-1 $7 2 1 2 1 1 1 1 1 1 1 1 1 1 1 0 1 1 1 @18 CBORE for M3 SHCS3 0 #
-11 face $15 -1 -1 $-1 $16 $17 $4 $-1 $18 reversed single F T -0.61538461538461542 0 -3.1415926535897931 0 #
-12 loop $-1 -1 -1 $-1 $-1 $19 $7 F unknown #
-13 cone-surface $-1 -1 -1 $-1 7.9999999999999831 7.7499999999999716 6.2882374973414063e-014 0 3.3505562464346481e-016 -1 1.7000000000000071 0 0 1 I I 0 1 1.7000000000000071 forward I I I I #
-14 coedge $-1 -1 -1 $-1 $20 $21 $22 $23 reversed $8 $-1 #
-15 integer_attrib-name_attrib-gen-attrib $-1 -1 $-1 $-1 $11 2 1 2 1 1 1 1 1 1 1 1 1 1 1 0 1 1 1 @18 CBORE for M3 SHCS3 0 #
-16 face $24 -1 -1 $-1 $25 $26 $4 $-1 $27 reversed single F T -3.529411764705825 -1.1764705882352904 -3.1415926535897931 9.0728231231748678e-016 #
-17 loop $-1 -1 -1 $-1 $-1 $28 $11 F unknown #
-18 cone-surface $-1 -1 -1 $-1 21.999999999999993 21.749999999999972 6.2882374973414063e-014 0 3.3505562464346481e-016 -1 3.2500000000000027 0 0 1 I I 0 1 3.2500000000000027 forward I I I I #
-19 coedge $-1 -1 -1 $-1 $29 $30 $31 $32 forward $12 $-1 #
-20 coedge $-1 -1 -1 $-1 $33 $14 $34 $35 forward $8 $-1 #
-21 coedge $-1 -1 -1 $-1 $14 $33 $36 $37 reversed $8 $-1 #
-22 coedge $-1 -1 -1 $-1 $38 $38 $14 $23 forward $39 $-1 #
-23 edge $-1 -1 -1 $-1 $40 -3.1415926535897931 $41 0 $22 $42 forward @7 unknown F #
-24 integer_attrib-name_attrib-gen-attrib $-1 -1 $-1 $-1 $16 2 1 2 1 1 1 1 1 1 1 1 1 1 1 0 1 1 1 @18 CBORE for M3 SHCS3 0 #
-25 face $43 -1 -1 $-1 $44 $45 $4 $-1 $46 reversed single F T -0.61538461538461664 0 -3.1415926535897931 0 #
-26 loop $-1 -1 -1 $-1 $-1 $47 $16 F unknown #
-27 cone-surface $-1 -1 -1 $-1 21.999999999999993 21.749999999999972 6.2882374973414063e-014 0 3.3505562464346481e-016 -1 1.7000000000000071 0 0 1 I I 0 1 1.7000000000000071 forward I I I I #
-28 coedge $-1 -1 -1 $-1 $48 $49 $50 $51 reversed $17 $-1 #
-29 coedge $-1 -1 -1 $-1 $52 $19 $53 $54 forward $12 $-1 #
-30 coedge $-1 -1 -1 $-1 $19 $52 $55 $56 reversed $12 $-1 #
-31 coedge $-1 -1 -1 $-1 $57 $57 $19 $32 reversed $58 $-1 #
-32 edge $-1 -1 -1 $-1 $59 -3.1415926535897931 $60 -0 $19 $61 forward @7 unknown F #
-33 coedge $-1 -1 -1 $-1 $21 $20 $62 $63 forward $8 $-1 #
-34 coedge $-1 -1 -1 $-1 $64 $65 $20 $35 reversed $66 $-1 #
-35 edge $-1 -1 -1 $-1 $40 -0.0020000000000000018 $67 0 $20 $68 forward @7 unknown F #
-36 coedge $-1 -1 -1 $-1 $65 $64 $21 $37 forward $66 $-1 #
-37 edge $-1 -1 -1 $-1 $41 -0.0020000000000000018 $69 0 $36 $70 forward @7 unknown F #
-38 coedge $-1 -1 -1 $-1 $22 $22 $64 $71 forward $39 $-1 #
-39 loop $-1 -1 -1 $-1 $-1 $38 $72 F unknown #
-40 vertex $-1 -1 -1 $-1 $35 $73 #
-41 vertex $-1 -1 -1 $-1 $23 $74 #
-42 ellipse-curve $-1 -1 -1 $-1 7.9999999999999831 7.7499999999999716 2.0000000000000648 0 3.3505562464346481e-016 -1 3.2500000000000027 0 0 1 I I #
-43 integer_attrib-name_attrib-gen-attrib $-1 -1 $-1 $-1 $25 2 1 2 1 1 1 1 1 1 1 1 1 1 1 0 1 1 1 @18 CBORE for M3 SHCS3 0 #
-44 face $75 -1 -1 $-1 $76 $77 $4 $-1 $78 reversed single F T -3.5294117647058432 -1.176470588235295 -3.1415926535897922 -3.9418308781584104e-016 #
-45 loop $-1 -1 -1 $-1 $-1 $79 $25 F unknown #
-46 cone-surface $-1 -1 -1 $-1 8 204.25000000001469 6.2882374973414076e-014 0 3.3505562464346481e-016 -1 3.249999999999996 0 0 1 I I 0 1 3.249999999999996 forward I I I I #
-47 coedge $-1 -1 -1 $-1 $80 $81 $82 $83 forward $26 $-1 #
-48 coedge $-1 -1 -1 $-1 $84 $28 $85 $86 forward $17 $-1 #
-49 coedge $-1 -1 -1 $-1 $28 $84 $87 $88 reversed $17 $-1 #
-50 coedge $-1 -1 -1 $-1 $89 $89 $28 $51 forward $90 $-1 #
-51 edge $-1 -1 -1 $-1 $91 -3.1415926535897931 $92 0 $50 $93 forward @7 unknown F #
-52 coedge $-1 -1 -1 $-1 $30 $29 $94 $95 forward $12 $-1 #
-53 coedge $-1 -1 -1 $-1 $96 $97 $29 $54 reversed $98 $-1 #
-54 edge $-1 -1 -1 $-1 $60 -0.0059999999999999221 $99 -0.0020000000000000018 $29 $100 forward @7 unknown F #
-55 coedge $-1 -1 -1 $-1 $97 $96 $30 $56 forward $98 $-1 #
-56 edge $-1 -1 -1 $-1 $59 -0.0059999999999999221 $101 -0.0020000000000000018 $55 $102 forward @7 unknown F #
-57 coedge $-1 -1 -1 $-1 $31 $31 $96 $103 reversed $58 $-1 #
-58 loop $-1 -1 -1 $-1 $104 $31 $105 F unknown #
-59 vertex $-1 -1 -1 $-1 $103 $106 #
-60 vertex $-1 -1 -1 $-1 $54 $107 #
-61 ellipse-curve $-1 -1 -1 $-1 7.9999999999999831 7.7499999999999716 5.9999999999999849 0 -3.3505562464346481e-016 1 -1.7000000000000071 -0 0 1 I I #
-62 coedge $-1 -1 -1 $-1 $108 $108 $33 $63 reversed $109 $-1 #
-63 edge $-1 -1 -1 $-1 $67 -3.1415926535897931 $69 0 $33 $110 forward @7 unknown F #
-64 coedge $-1 -1 -1 $-1 $36 $34 $38 $71 reversed $66 $-1 #
-65 coedge $-1 -1 -1 $-1 $34 $36 $108 $111 forward $66 $-1 #
-66 loop $-1 -1 -1 $-1 $-1 $34 $112 F unknown #
-67 vertex $-1 -1 -1 $-1 $35 $113 #
-68 straight-curve $-1 -1 -1 $-1 4.7499999999999805 7.7499999999999716 6.2882374973414063e-014 0 3.350556246434648e-013 -1000 I I #
-69 vertex $-1 -1 -1 $-1 $63 $114 #
-70 straight-curve $-1 -1 -1 $-1 11.249999999999986 7.7499999999999716 6.2882374973414063e-014 0 3.350556246434648e-013 -1000 I I #
-71 edge $-1 -1 -1 $-1 $41 0 $40 3.1415926535897931 $38 $115 forward @7 unknown F #
-72 face $116 -1 -1 $-1 $112 $117 $4 $-1 $118 reversed single F F #
-73 point $-1 -1 -1 $-1 4.7499999999999805 7.7499999999999716 2.0000000000000648 #
-74 point $-1 -1 -1 $-1 11.249999999999986 7.7499999999999716 2.0000000000000648 #
-75 integer_attrib-name_attrib-gen-attrib $-1 -1 $-1 $-1 $44 2 1 2 1 1 1 1 1 1 1 1 1 1 1 0 1 1 1 @18 CBORE for M3 SHCS3 0 #
-76 face $119 -1 -1 $-1 $120 $121 $4 $-1 $122 reversed single F T -0.61538461538461664 0 -3.1415926535897931 0 #
-77 loop $-1 -1 -1 $-1 $-1 $123 $44 F unknown #
-78 cone-surface $-1 -1 -1 $-1 8 204.25000000001469 6.2882374973414076e-014 0 3.3505562464346481e-016 -1 1.7000000000000002 0 0 1 I I 0 1 1.7000000000000002 forward I I I I #
-79 coedge $-1 -1 -1 $-1 $124 $125 $126 $127 reversed $45 $-1 #
-80 coedge $-1 -1 -1 $-1 $128 $47 $129 $130 forward $26 $-1 #
-81 coedge $-1 -1 -1 $-1 $47 $128 $131 $132 reversed $26 $-1 #
-82 coedge $-1 -1 -1 $-1 $133 $133 $47 $83 reversed $104 $-1 #
-83 edge $-1 -1 -1 $-1 $134 -3.1415926535897931 $135 -0 $47 $136 forward @7 unknown F #
-84 coedge $-1 -1 -1 $-1 $49 $48 $137 $138 forward $17 $-1 #
-85 coedge $-1 -1 -1 $-1 $139 $140 $48 $86 reversed $141 $-1 #
-86 edge $-1 -1 -1 $-1 $91 -0.0020000000000000018 $142 0 $48 $143 forward @7 unknown F #
-87 coedge $-1 -1 -1 $-1 $140 $139 $49 $88 forward $141 $-1 #
-88 edge $-1 -1 -1 $-1 $92 -0.0020000000000000018 $144 0 $87 $145 forward @7 unknown F #
-89 coedge $-1 -1 -1 $-1 $50 $50 $139 $146 forward $90 $-1 #
-90 loop $-1 -1 -1 $-1 $-1 $89 $147 F unknown #
-91 vertex $-1 -1 -1 $-1 $86 $148 #
-92 vertex $-1 -1 -1 $-1 $51 $149 #
-93 ellipse-curve $-1 -1 -1 $-1 21.999999999999993 21.749999999999972 2.0000000000000648 0 3.3505562464346481e-016 -1 3.2500000000000027 0 0 1 I I #
-94 coedge $-1 -1 -1 $-1 $150 $150 $52 $95 reversed $117 $-1 #
-95 edge $-1 -1 -1 $-1 $99 -3.1415926535897931 $101 0 $52 $151 forward @7 unknown F #
-96 coedge $-1 -1 -1 $-1 $55 $53 $57 $103 forward $98 $-1 #
-97 coedge $-1 -1 -1 $-1 $53 $55 $150 $152 forward $98 $-1 #
-98 loop $-1 -1 -1 $-1 $-1 $53 $153 F unknown #
-99 vertex $-1 -1 -1 $-1 $54 $154 #
-100 straight-curve $-1 -1 -1 $-1 6.2999999999999758 7.7499999999999716 6.2882374973414063e-014 0 3.350556246434648e-013 -1000 I I #
-101 vertex $-1 -1 -1 $-1 $95 $155 #
-102 straight-curve $-1 -1 -1 $-1 9.6999999999999904 7.7499999999999716 6.2882374973414063e-014 0 3.350556246434648e-013 -1000 I I #
-103 edge $-1 -1 -1 $-1 $60 -0 $59 3.1415926535897931 $96 $156 forward @7 unknown F #
-104 loop $-1 -1 -1 $-1 $157 $82 $105 F unknown #
-105 face $158 -1 -1 $-1 $159 $58 $4 $-1 $160 forward single F F #
-106 point $-1 -1 -1 $-1 9.6999999999999904 7.7499999999999716 5.9999999999999849 #
-107 point $-1 -1 -1 $-1 6.2999999999999758 7.7499999999999716 5.9999999999999849 #
-108 coedge $-1 -1 -1 $-1 $62 $62 $65 $111 reversed $109 $-1 #
-109 loop $-1 -1 -1 $-1 $161 $108 $162 F unknown #
-110 ellipse-curve $-1 -1 -1 $-1 7.9999999999999831 7.7499999999999716 6.2882374973414063e-014 0 3.3505562464346481e-016 -1 3.2500000000000027 0 0 1 I I #
-111 edge $-1 -1 -1 $-1 $69 0 $67 3.1415926535897931 $65 $163 forward @7 unknown F #
-112 face $164 -1 -1 $-1 $-1 $66 $4 $-1 $165 reversed single F T -0.61538461538461542 0 -2.0618807670367066e-016 3.1415926535897931 #
-113 point $-1 -1 -1 $-1 4.7499999999999805 7.7499999999999716 6.2882374973414063e-014 #
-114 point $-1 -1 -1 $-1 11.249999999999986 7.7499999999999716 6.2882374973414063e-014 #
-115 ellipse-curve $-1 -1 -1 $-1 7.9999999999999831 7.7499999999999716 2.0000000000000648 0 3.3505562464346481e-016 -1 3.2500000000000027 0 0 1 I I #
-116 integer_attrib-name_attrib-gen-attrib $-1 -1 $-1 $-1 $72 2 1 2 1 1 1 1 1 1 1 1 1 1 1 0 1 1 1 @18 CBORE for M3 SHCS3 0 #
-117 loop $-1 -1 -1 $-1 $39 $150 $72 F unknown #
-118 plane-surface $-1 -1 -1 $-1 7.9999999999999831 6.0499999999999829 2.0000000000000639 0 -3.3505562464346481e-016 1 -1000 0 0 forward_v I I I I #
-119 integer_attrib-name_attrib-gen-attrib $-1 -1 $-1 $-1 $76 2 1 2 1 1 1 1 1 1 1 1 1 1 1 0 1 1 1 @18 CBORE for M3 SHCS3 0 #
-120 face $166 -1 -1 $-1 $167 $168 $4 $-1 $169 reversed single F T -3.5294117647058405 -1.176470588235295 -3.1415926535897922 -3.9418308781584143e-016 #
-121 loop $-1 -1 -1 $-1 $-1 $170 $76 F unknown #
-122 cone-surface $-1 -1 -1 $-1 22 190.25000000001472 6.2882374973414076e-014 0 3.3505562464346481e-016 -1 3.249999999999996 0 0 1 I I 0 1 3.249999999999996 forward I I I I #
-123 coedge $-1 -1 -1 $-1 $171 $172 $173 $174 forward $77 $-1 #
-124 coedge $-1 -1 -1 $-1 $175 $79 $176 $177 forward $45 $-1 #
-125 coedge $-1 -1 -1 $-1 $79 $175 $178 $179 reversed $45 $-1 #
-126 coedge $-1 -1 -1 $-1 $180 $180 $79 $127 forward $181 $-1 #
-127 edge $-1 -1 -1 $-1 $182 -3.1415926535897931 $183 0 $126 $184 forward @7 unknown F #
-128 coedge $-1 -1 -1 $-1 $81 $80 $185 $186 forward $26 $-1 #
-129 coedge $-1 -1 -1 $-1 $187 $188 $80 $130 reversed $189 $-1 #
-130 edge $-1 -1 -1 $-1 $135 -0.0059999999999999273 $190 -0.0020000000000000018 $80 $191 forward @7 unknown F #
-131 coedge $-1 -1 -1 $-1 $188 $187 $81 $132 forward $189 $-1 #
-132 edge $-1 -1 -1 $-1 $134 -0.0059999999999999273 $192 -0.0020000000000000018 $131 $193 forward @7 unknown F #
-133 coedge $-1 -1 -1 $-1 $82 $82 $187 $194 reversed $104 $-1 #
-134 vertex $-1 -1 -1 $-1 $194 $195 #
-135 vertex $-1 -1 -1 $-1 $130 $196 #
-136 ellipse-curve $-1 -1 -1 $-1 21.999999999999993 21.749999999999972 5.9999999999999902 0 -3.3505562464346481e-016 1 -1.7000000000000071 -0 0 1 I I #
-137 coedge $-1 -1 -1 $-1 $197 $197 $84 $138 reversed $161 $-1 #
-138 edge $-1 -1 -1 $-1 $142 -3.1415926535897931 $144 0 $84 $198 forward @7 unknown F #
-139 coedge $-1 -1 -1 $-1 $87 $85 $89 $146 reversed $141 $-1 #
-140 coedge $-1 -1 -1 $-1 $85 $87 $197 $199 forward $141 $-1 #
-141 loop $-1 -1 -1 $-1 $-1 $85 $200 F unknown #
-142 vertex $-1 -1 -1 $-1 $86 $201 #
-143 straight-curve $-1 -1 -1 $-1 18.749999999999993 21.749999999999972 6.2882374973414063e-014 0 3.350556246434648e-013 -1000 I I #
-144 vertex $-1 -1 -1 $-1 $138 $202 #
-145 straight-curve $-1 -1 -1 $-1 25.249999999999996 21.749999999999972 6.2882374973414063e-014 0 3.350556246434648e-013 -1000 I I #
-146 edge $-1 -1 -1 $-1 $92 0 $91 3.1415926535897931 $89 $203 forward @7 unknown F #
-147 face $204 -1 -1 $-1 $200 $205 $4 $-1 $206 reversed single F F #
-148 point $-1 -1 -1 $-1 18.749999999999993 21.749999999999972 2.0000000000000648 #
-149 point $-1 -1 -1 $-1 25.249999999999996 21.749999999999972 2.0000000000000648 #
-150 coedge $-1 -1 -1 $-1 $94 $94 $97 $152 reversed $117 $-1 #
-151 ellipse-curve $-1 -1 -1 $-1 7.9999999999999831 7.7499999999999716 2.0000000000000648 0 3.3505562464346481e-016 -1 1.7000000000000071 0 0 1 I I #
-152 edge $-1 -1 -1 $-1 $101 0 $99 3.1415926535897931 $97 $207 forward @7 unknown F #
-153 face $208 -1 -1 $-1 $72 $98 $4 $-1 $209 reversed single F T -3.5294117647058219 -1.1764705882352904 -1.1825492634475024e-015 3.141592653589794 #
-154 point $-1 -1 -1 $-1 6.2999999999999758 7.7499999999999716 2.0000000000000648 #
-155 point $-1 -1 -1 $-1 9.6999999999999904 7.7499999999999716 2.0000000000000648 #
-156 ellipse-curve $-1 -1 -1 $-1 7.9999999999999831 7.7499999999999716 5.9999999999999849 0 -3.3505562464346481e-016 1 -1.7000000000000071 -0 0 1 I I #
-157 loop $-1 -1 -1 $-1 $-1 $210 $105 F unknown #
-158 integer_attrib-name_attrib-gen-attrib $-1 -1 $-1 $-1 $105 2 1 2 1 1 1 1 1 1 1 1 1 1 1 0 1 1 1 @18 CBORE for M3 SHCS3 0 #
-159 face $211 -1 -1 $-1 $212 $213 $4 $-1 $214 forward single F F #
-160 plane-surface $-1 -1 -1 $-1 30 -0.75 5.9999999999999822 0 -3.3505562464346481e-016 1 -1000 -0 0 forward_v I I I I #
-161 loop $-1 -1 -1 $-1 $215 $197 $162 F unknown #
-162 face $216 -1 -1 $-1 $217 $109 $4 $-1 $218 forward single F F #
-163 ellipse-curve $-1 -1 -1 $-1 7.9999999999999831 7.7499999999999716 6.2882374973414063e-014 0 3.3505562464346481e-016 -1 3.2500000000000027 0 0 1 I I #
-164 integer_attrib-name_attrib-gen-attrib $-1 -1 $-1 $-1 $112 2 1 2 1 1 1 1 1 1 1 1 1 1 1 0 1 1 1 @18 CBORE for M3 SHCS3 0 #
-165 cone-surface $-1 -1 -1 $-1 7.9999999999999831 7.7499999999999716 6.2882374973414063e-014 0 3.3505562464346481e-016 -1 3.2500000000000027 0 0 1 I I 0 1 3.2500000000000027 forward I I I I #
-166 integer_attrib-name_attrib-gen-attrib $-1 -1 $-1 $-1 $120 2 1 2 1 1 1 1 1 1 1 1 1 1 1 0 1 1 1 @18 CBORE for M3 SHCS3 0 #
-167 face $219 -1 -1 $-1 $162 $220 $4 $-1 $221 forward single F F #
-168 loop $-1 -1 -1 $-1 $-1 $222 $120 F unknown #
-169 cone-surface $-1 -1 -1 $-1 22 190.25000000001472 6.2882374973414076e-014 0 3.3505562464346481e-016 -1 1.7000000000000002 0 0 1 I I 0 1 1.7000000000000002 forward I I I I #
-170 coedge $-1 -1 -1 $-1 $223 $224 $225 $226 reversed $121 $-1 #
-171 coedge $-1 -1 -1 $-1 $227 $123 $228 $229 forward $77 $-1 #
-172 coedge $-1 -1 -1 $-1 $123 $227 $230 $231 reversed $77 $-1 #
-173 coedge $-1 -1 -1 $-1 $232 $232 $123 $174 reversed $233 $-1 #
-174 edge $-1 -1 -1 $-1 $234 -3.1415926535897931 $235 -0 $123 $236 forward @7 unknown F #
-175 coedge $-1 -1 -1 $-1 $125 $124 $237 $238 forward $45 $-1 #
-176 coedge $-1 -1 -1 $-1 $239 $240 $124 $177 reversed $241 $-1 #
-177 edge $-1 -1 -1 $-1 $182 -0.0020000000000000018 $242 0 $124 $243 forward @7 unknown F #
-178 coedge $-1 -1 -1 $-1 $240 $239 $125 $179 forward $241 $-1 #
-179 edge $-1 -1 -1 $-1 $183 -0.0020000000000000018 $244 0 $178 $245 forward @7 unknown F #
-180 coedge $-1 -1 -1 $-1 $126 $126 $239 $246 forward $181 $-1 #
-181 loop $-1 -1 -1 $-1 $-1 $180 $247 F unknown #
-182 vertex $-1 -1 -1 $-1 $177 $248 #
-183 vertex $-1 -1 -1 $-1 $127 $249 #
-184 ellipse-curve $-1 -1 -1 $-1 8 204.25000000001469 2.0000000000000648 0 3.3505562464346481e-016 -1 3.249999999999996 0 0 1 I I #
-185 coedge $-1 -1 -1 $-1 $250 $250 $128 $186 reversed $205 $-1 #
-186 edge $-1 -1 -1 $-1 $190 -3.1415926535897931 $192 0 $128 $251 forward @7 unknown F #
-187 coedge $-1 -1 -1 $-1 $131 $129 $133 $194 forward $189 $-1 #
-188 coedge $-1 -1 -1 $-1 $129 $131 $250 $252 forward $189 $-1 #
-189 loop $-1 -1 -1 $-1 $-1 $129 $253 F unknown #
-190 vertex $-1 -1 -1 $-1 $130 $254 #
-191 straight-curve $-1 -1 -1 $-1 20.299999999999986 21.749999999999972 6.2882374973414063e-014 0 3.350556246434648e-013 -1000 I I #
-192 vertex $-1 -1 -1 $-1 $186 $255 #
-193 straight-curve $-1 -1 -1 $-1 23.700000000000003 21.749999999999972 6.2882374973414063e-014 0 3.350556246434648e-013 -1000 I I #
-194 edge $-1 -1 -1 $-1 $135 -0 $134 3.1415926535897931 $187 $256 forward @7 unknown F #
-195 point $-1 -1 -1 $-1 23.700000000000003 21.749999999999972 5.9999999999999902 #
-196 point $-1 -1 -1 $-1 20.299999999999986 21.749999999999972 5.9999999999999902 #
-197 coedge $-1 -1 -1 $-1 $137 $137 $140 $199 reversed $161 $-1 #
-198 ellipse-curve $-1 -1 -1 $-1 21.999999999999993 21.749999999999972 6.2882374973414063e-014 0 3.3505562464346481e-016 -1 3.2500000000000027 0 0 1 I I #
-199 edge $-1 -1 -1 $-1 $144 0 $142 3.1415926535897931 $140 $257 forward @7 unknown F #
-200 face $258 -1 -1 $-1 $153 $141 $4 $-1 $259 reversed single F T -0.61538461538461542 0 -2.0618807670367061e-016 3.1415926535897931 #
-201 point $-1 -1 -1 $-1 18.749999999999993 21.749999999999972 6.2882374973414063e-014 #
-202 point $-1 -1 -1 $-1 25.249999999999996 21.749999999999972 6.2882374973414063e-014 #
-203 ellipse-curve $-1 -1 -1 $-1 21.999999999999993 21.749999999999972 2.0000000000000648 0 3.3505562464346481e-016 -1 3.2500000000000027 0 0 1 I I #
-204 integer_attrib-name_attrib-gen-attrib $-1 -1 $-1 $-1 $147 2 1 2 1 1 1 1 1 1 1 1 1 1 1 0 1 1 1 @18 CBORE for M3 SHCS3 0 #
-205 loop $-1 -1 -1 $-1 $90 $250 $147 F unknown #
-206 plane-surface $-1 -1 -1 $-1 21.999999999999993 20.049999999999955 2.0000000000000644 0 -3.3505562464346481e-016 1 -1000 0 0 forward_v I I I I #
-207 ellipse-curve $-1 -1 -1 $-1 7.9999999999999831 7.7499999999999716 2.0000000000000648 0 3.3505562464346481e-016 -1 1.7000000000000071 0 0 1 I I #
-208 integer_attrib-name_attrib-gen-attrib $-1 -1 $-1 $-1 $153 2 1 2 1 1 1 1 1 1 1 1 1 1 1 0 1 1 1 @18 CBORE for M3 SHCS3 0 #
-209 cone-surface $-1 -1 -1 $-1 7.9999999999999831 7.7499999999999716 6.2882374973414063e-014 0 3.3505562464346481e-016 -1 1.7000000000000071 0 0 1 I I 0 1 1.7000000000000071 forward I I I I #
-210 coedge $-1 -1 -1 $-1 $260 $261 $262 $263 reversed $157 $-1 #
-211 integer_attrib-name_attrib-gen-attrib $-1 -1 $-1 $-1 $159 2 1 2 1 1 1 1 1 1 1 1 1 1 1 0 1 1 1 @18 CBORE for M3 SHCS3 0 #
-212 face $264 -1 -1 $-1 $265 $266 $4 $-1 $267 reversed single F T -3.5294117647058405 -1.176470588235295 -1.1825492634475095e-015 3.141592653589794 #
-213 loop $-1 -1 -1 $-1 $-1 $268 $159 F unknown #
-214 plane-surface $-1 -1 -1 $-1 30 29.750000000000114 12.999999999999993 0 -1 -3.3505562464346481e-016 1000 0 0 forward_v I I I I #
-215 loop $-1 -1 -1 $-1 $269 $270 $162 F unknown #
-216 integer_attrib-name_attrib-gen-attrib $-1 -1 $-1 $-1 $162 2 1 2 1 1 1 1 1 1 1 1 1 1 1 0 1 1 1 @18 CBORE for M3 SHCS3 0 #
-217 face $271 -1 -1 $-1 $272 $273 $4 $-1 $274 forward single F F #
-218 plane-surface $-1 -1 -1 $-1 30 52.25 1.2621774483536189e-029 0 4.9303806576313238e-032 -1 0 -1000 -4.9303806576313238e-029 forward_v I I I I #
-219 integer_attrib-name_attrib-gen-attrib $-1 -1 $-1 $-1 $167 2 1 2 1 1 1 1 1 1 1 1 1 1 1 0 1 1 1 @18 CBORE for M3 SHCS3 0 #
-220 loop $-1 -1 -1 $-1 $-1 $275 $167 F unknown #
-221 plane-surface $-1 -1 -1 $-1 30 182.75000000001469 13.000000000000044 0 -3.3505562464346481e-016 1 -1000 0 0 forward_v I I I I #
-222 coedge $-1 -1 -1 $-1 $276 $277 $278 $279 forward $168 $-1 #
-223 coedge $-1 -1 -1 $-1 $280 $170 $281 $282 forward $121 $-1 #
-224 coedge $-1 -1 -1 $-1 $170 $280 $283 $284 reversed $121 $-1 #
-225 coedge $-1 -1 -1 $-1 $285 $285 $170 $226 forward $286 $-1 #
-226 edge $-1 -1 -1 $-1 $287 -3.1415926535897931 $288 0 $225 $289 forward @7 unknown F #
-227 coedge $-1 -1 -1 $-1 $172 $171 $290 $291 forward $77 $-1 #
-228 coedge $-1 -1 -1 $-1 $292 $293 $171 $229 reversed $294 $-1 #
-229 edge $-1 -1 -1 $-1 $235 -0.0059999999999999342 $295 -0.0020000000000000018 $171 $296 forward @7 unknown F #
-230 coedge $-1 -1 -1 $-1 $293 $292 $172 $231 forward $294 $-1 #
-231 edge $-1 -1 -1 $-1 $234 -0.0059999999999999342 $297 -0.0020000000000000018 $230 $298 forward @7 unknown F #
-232 coedge $-1 -1 -1 $-1 $173 $173 $292 $299 reversed $233 $-1 #
-233 loop $-1 -1 -1 $-1 $300 $173 $301 F unknown #
-234 vertex $-1 -1 -1 $-1 $299 $302 #
-235 vertex $-1 -1 -1 $-1 $229 $303 #
-236 ellipse-curve $-1 -1 -1 $-1 8 204.25000000001469 5.9999999999999973 0 -3.3505562464346481e-016 1 -1.7000000000000002 -0 0 1 I I #
-237 coedge $-1 -1 -1 $-1 $270 $270 $175 $238 reversed $215 $-1 #
-238 edge $-1 -1 -1 $-1 $242 -3.1415926535897931 $244 0 $175 $304 forward @7 unknown F #
-239 coedge $-1 -1 -1 $-1 $178 $176 $180 $246 reversed $241 $-1 #
-240 coedge $-1 -1 -1 $-1 $176 $178 $270 $305 forward $241 $-1 #
-241 loop $-1 -1 -1 $-1 $-1 $176 $306 F unknown #
-242 vertex $-1 -1 -1 $-1 $177 $307 #
-243 straight-curve $-1 -1 -1 $-1 4.7500000000000053 204.25000000001469 6.2882374973414076e-014 0 3.350556246434648e-013 -1000 I I #
-244 vertex $-1 -1 -1 $-1 $238 $308 #
-245 straight-curve $-1 -1 -1 $-1 11.249999999999996 204.25000000001469 6.2882374973414076e-014 0 3.350556246434648e-013 -1000 I I #
-246 edge $-1 -1 -1 $-1 $183 0 $182 3.1415926535897931 $180 $309 forward @7 unknown F #
-247 face $310 -1 -1 $-1 $306 $311 $4 $-1 $312 reversed single F F #
-248 point $-1 -1 -1 $-1 4.7500000000000053 204.25000000001469 2.0000000000000648 #
-249 point $-1 -1 -1 $-1 11.249999999999996 204.25000000001469 2.0000000000000648 #
-250 coedge $-1 -1 -1 $-1 $185 $185 $188 $252 reversed $205 $-1 #
-251 ellipse-curve $-1 -1 -1 $-1 21.999999999999993 21.749999999999972 2.0000000000000648 0 3.3505562464346481e-016 -1 1.7000000000000071 0 0 1 I I #
-252 edge $-1 -1 -1 $-1 $192 0 $190 3.1415926535897931 $188 $313 forward @7 unknown F #
-253 face $314 -1 -1 $-1 $147 $189 $4 $-1 $315 reversed single F T -3.529411764705825 -1.1764705882352904 -1.182549263447504e-015 3.141592653589794 #
-254 point $-1 -1 -1 $-1 20.299999999999986 21.749999999999972 2.0000000000000648 #
-255 point $-1 -1 -1 $-1 23.700000000000003 21.749999999999972 2.0000000000000648 #
-256 ellipse-curve $-1 -1 -1 $-1 21.999999999999993 21.749999999999972 5.9999999999999902 0 -3.3505562464346481e-016 1 -1.7000000000000071 -0 0 1 I I #
-257 ellipse-curve $-1 -1 -1 $-1 21.999999999999993 21.749999999999972 6.2882374973414063e-014 0 3.3505562464346481e-016 -1 3.2500000000000027 0 0 1 I I #
-258 integer_attrib-name_attrib-gen-attrib $-1 -1 $-1 $-1 $200 2 1 2 1 1 1 1 1 1 1 1 1 1 1 0 1 1 1 @18 CBORE for M3 SHCS3 0 #
-259 cone-surface $-1 -1 -1 $-1 21.999999999999993 21.749999999999972 6.2882374973414063e-014 0 3.3505562464346481e-016 -1 3.2500000000000027 0 0 1 I I 0 1 3.2500000000000027 forward I I I I #
-260 coedge $-1 -1 -1 $-1 $316 $210 $317 $318 reversed $157 $-1 #
-261 coedge $-1 -1 -1 $-1 $210 $316 $319 $320 forward $157 $-1 #
-262 coedge $-1 -1 -1 $-1 $321 $322 $210 $263 forward $323 $-1 #
-263 edge $-1 -1 -1 $-1 $324 0.00075000000000000002 $325 0.030500000000000114 $262 $326 forward @7 unknown F #
-264 integer_attrib-name_attrib-gen-attrib $-1 -1 $-1 $-1 $212 2 1 2 1 1 1 1 1 1 1 1 1 1 1 0 1 1 1 @18 CBORE for M3 SHCS3 0 #
-265 face $327 -1 -1 $-1 $328 $329 $4 $-1 $330 reversed single F F #
-266 loop $-1 -1 -1 $-1 $-1 $331 $212 F unknown #
-267 cone-surface $-1 -1 -1 $-1 22 190.25000000001472 6.2882374973414076e-014 0 3.3505562464346481e-016 -1 1.7000000000000002 0 0 1 I I 0 1 1.7000000000000002 forward I I I I #
-268 coedge $-1 -1 -1 $-1 $319 $332 $321 $333 reversed $213 $-1 #
-269 loop $-1 -1 -1 $-1 $334 $335 $162 F unknown #
-270 coedge $-1 -1 -1 $-1 $237 $237 $240 $305 reversed $215 $-1 #
-271 integer_attrib-name_attrib-gen-attrib $-1 -1 $-1 $-1 $217 2 1 2 1 1 1 1 1 1 1 1 1 1 1 0 1 1 1 @18 CBORE for M3 SHCS3 0 #
-272 face $336 -1 -1 $-1 $337 $323 $4 $-1 $338 reversed single F F #
-273 loop $-1 -1 -1 $-1 $-1 $339 $217 F unknown #
-274 plane-surface $-1 -1 -1 $-1 30 287.75000000001467 8.0640323079517706e-014 1 0 0 0 1000 3.350556246434648e-013 forward_v I I I I #
-275 coedge $-1 -1 -1 $-1 $340 $341 $342 $343 reversed $220 $-1 #
-276 coedge $-1 -1 -1 $-1 $344 $222 $331 $345 forward $168 $-1 #
-277 coedge $-1 -1 -1 $-1 $222 $344 $346 $347 reversed $168 $-1 #
-278 coedge $-1 -1 -1 $-1 $348 $348 $222 $279 reversed $300 $-1 #
-279 edge $-1 -1 -1 $-1 $349 -3.1415926535897931 $350 -0 $222 $351 forward @7 unknown F #
-280 coedge $-1 -1 -1 $-1 $224 $223 $352 $353 forward $121 $-1 #
-281 coedge $-1 -1 -1 $-1 $354 $355 $223 $282 reversed $356 $-1 #
-282 edge $-1 -1 -1 $-1 $287 -0.0020000000000000018 $357 0 $223 $358 forward @7 unknown F #
-283 coedge $-1 -1 -1 $-1 $355 $354 $224 $284 forward $356 $-1 #
-284 edge $-1 -1 -1 $-1 $288 -0.0020000000000000018 $359 0 $283 $360 forward @7 unknown F #
-285 coedge $-1 -1 -1 $-1 $225 $225 $354 $361 forward $286 $-1 #
-286 loop $-1 -1 -1 $-1 $-1 $285 $265 F unknown #
-287 vertex $-1 -1 -1 $-1 $282 $362 #
-288 vertex $-1 -1 -1 $-1 $226 $363 #
-289 ellipse-curve $-1 -1 -1 $-1 22 190.25000000001472 2.0000000000000648 0 3.3505562464346481e-016 -1 3.249999999999996 0 0 1 I I #
-290 coedge $-1 -1 -1 $-1 $364 $364 $227 $291 reversed $311 $-1 #
-291 edge $-1 -1 -1 $-1 $295 -3.1415926535897931 $297 0 $227 $365 forward @7 unknown F #
-292 coedge $-1 -1 -1 $-1 $230 $228 $232 $299 forward $294 $-1 #
-293 coedge $-1 -1 -1 $-1 $228 $230 $364 $366 forward $294 $-1 #
-294 loop $-1 -1 -1 $-1 $-1 $228 $367 F unknown #
-295 vertex $-1 -1 -1 $-1 $229 $368 #
-296 straight-curve $-1 -1 -1 $-1 6.3000000000000007 204.25000000001469 6.2882374973414076e-014 0 3.350556246434648e-013 -1000 I I #
-297 vertex $-1 -1 -1 $-1 $291 $369 #
-298 straight-curve $-1 -1 -1 $-1 9.7000000000000011 204.25000000001469 6.2882374973414076e-014 0 3.350556246434648e-013 -1000 I I #
-299 edge $-1 -1 -1 $-1 $235 -0 $234 3.1415926535897931 $292 $370 forward @7 unknown F #
-300 loop $-1 -1 -1 $-1 $371 $278 $301 F unknown #
-301 face $372 -1 -1 $-1 $373 $233 $4 $-1 $374 forward single F F #
-302 point $-1 -1 -1 $-1 9.7000000000000011 204.25000000001469 5.9999999999999973 #
-303 point $-1 -1 -1 $-1 6.3000000000000007 204.25000000001469 5.9999999999999973 #
-304 ellipse-curve $-1 -1 -1 $-1 8 204.25000000001469 6.2882374973414076e-014 0 3.3505562464346481e-016 -1 3.249999999999996 0 0 1 I I #
-305 edge $-1 -1 -1 $-1 $244 0 $242 3.1415926535897931 $240 $375 forward @7 unknown F #
-306 face $376 -1 -1 $-1 $253 $241 $4 $-1 $377 reversed single F T -0.61538461538461664 0 -2.0618807670367105e-016 3.1415926535897931 #
-307 point $-1 -1 -1 $-1 4.7500000000000053 204.25000000001469 6.2882374973414076e-014 #
-308 point $-1 -1 -1 $-1 11.249999999999996 204.25000000001469 6.2882374973414076e-014 #
-309 ellipse-curve $-1 -1 -1 $-1 8 204.25000000001469 2.0000000000000648 0 3.3505562464346481e-016 -1 3.249999999999996 0 0 1 I I #
-310 integer_attrib-name_attrib-gen-attrib $-1 -1 $-1 $-1 $247 2 1 2 1 1 1 1 1 1 1 1 1 1 1 0 1 1 1 @18 CBORE for M3 SHCS3 0 #
-311 loop $-1 -1 -1 $-1 $181 $364 $247 F unknown #
-312 plane-surface $-1 -1 -1 $-1 8 202.55000000001468 2.0000000000000644 0 -3.3505562464346481e-016 1 -1000 0 0 forward_v I I I I #
-313 ellipse-curve $-1 -1 -1 $-1 21.999999999999993 21.749999999999972 2.0000000000000648 0 3.3505562464346481e-016 -1 1.7000000000000071 0 0 1 I I #
-314 integer_attrib-name_attrib-gen-attrib $-1 -1 $-1 $-1 $253 2 1 2 1 1 1 1 1 1 1 1 1 1 1 0 1 1 1 @18 CBORE for M3 SHCS3 0 #
-315 cone-surface $-1 -1 -1 $-1 21.999999999999993 21.749999999999972 6.2882374973414063e-014 0 3.3505562464346481e-016 -1 1.7000000000000071 0 0 1 I I 0 1 1.7000000000000071 forward I I I I #
-316 coedge $-1 -1 -1 $-1 $261 $260 $378 $379 forward $157 $-1 #
-317 coedge $-1 -1 -1 $-1 $380 $381 $260 $318 forward $382 $-1 #
-318 edge $-1 -1 -1 $-1 $383 0 $324 0.029999999999999999 $317 $384 forward @7 unknown F #
-319 coedge $-1 -1 -1 $-1 $385 $268 $261 $320 reversed $213 $-1 #
-320 edge $-1 -1 -1 $-1 $386 0 $325 0.029999999999999999 $261 $387 forward @7 unknown F #
-321 coedge $-1 -1 -1 $-1 $342 $262 $268 $333 forward $323 $-1 #
-322 coedge $-1 -1 -1 $-1 $262 $388 $380 $389 forward $323 $-1 #
-323 loop $-1 -1 -1 $-1 $-1 $262 $272 F unknown #
-324 vertex $-1 -1 -1 $-1 $318 $390 #
-325 vertex $-1 -1 -1 $-1 $320 $391 #
-326 straight-curve $-1 -1 -1 $-1 0 -0.75 5.9999999999999822 0 1000 3.350556246434648e-013 I I #
-327 integer_attrib-name_attrib-gen-attrib $-1 -1 $-1 $-1 $265 2 1 2 1 1 1 1 1 1 1 1 1 1 1 0 1 1 1 @18 CBORE for M3 SHCS3 0 #
-328 face $392 -1 -1 $-1 $367 $356 $4 $-1 $393 reversed single F T -0.61538461538461664 0 -2.061880767036713e-016 3.1415926535897931 #
-329 loop $-1 -1 -1 $-1 $286 $394 $265 F unknown #
-330 plane-surface $-1 -1 -1 $-1 22 188.55000000001471 2.0000000000000639 0 -3.3505562464346481e-016 1 -1000 0 0 forward_v I I I I #
-331 coedge $-1 -1 -1 $-1 $395 $396 $276 $345 reversed $266 $-1 #
-332 coedge $-1 -1 -1 $-1 $268 $385 $340 $397 forward $213 $-1 #
-333 edge $-1 -1 -1 $-1 $325 -0.0070000000000000001 $398 0 $321 $399 forward @7 unknown F #
-334 loop $-1 -1 -1 $-1 $-1 $400 $162 F unknown #
-335 coedge $-1 -1 -1 $-1 $352 $352 $355 $401 reversed $269 $-1 #
-336 integer_attrib-name_attrib-gen-attrib $-1 -1 $-1 $-1 $272 2 1 2 1 1 1 1 1 1 1 1 1 1 1 0 1 1 1 @18 CBORE for M3 SHCS3 0 #
-337 face $402 -1 -1 $-1 $301 $403 $4 $-1 $404 forward single F F #
-338 plane-surface $-1 -1 -1 $-1 0 287.75000000001467 8.0640323079517706e-014 1 0 0 0 1000 3.350556246434648e-013 forward_v I I I I #
-339 coedge $-1 -1 -1 $-1 $405 $406 $407 $408 reversed $273 $-1 #
-340 coedge $-1 -1 -1 $-1 $409 $275 $332 $397 reversed $220 $-1 #
-341 coedge $-1 -1 -1 $-1 $275 $409 $410 $411 forward $220 $-1 #
-342 coedge $-1 -1 -1 $-1 $412 $321 $275 $343 forward $323 $-1 #
-343 edge $-1 -1 -1 $-1 $398 -0.15300000000001457 $413 -0.00050000000000000001 $342 $414 forward @7 unknown F #
-344 coedge $-1 -1 -1 $-1 $277 $276 $415 $416 forward $168 $-1 #
-345 edge $-1 -1 -1 $-1 $350 -0.0059999999999999299 $417 -0.0020000000000000018 $276 $418 forward @7 unknown F #
-346 coedge $-1 -1 -1 $-1 $396 $395 $277 $347 forward $266 $-1 #
-347 edge $-1 -1 -1 $-1 $349 -0.0059999999999999299 $419 -0.0020000000000000018 $346 $420 forward @7 unknown F #
-348 coedge $-1 -1 -1 $-1 $278 $278 $395 $421 reversed $300 $-1 #
-349 vertex $-1 -1 -1 $-1 $421 $422 #
-350 vertex $-1 -1 -1 $-1 $345 $423 #
-351 ellipse-curve $-1 -1 -1 $-1 22 190.25000000001472 5.9999999999999929 0 -3.3505562464346481e-016 1 -1.7000000000000002 -0 0 1 I I #
-352 coedge $-1 -1 -1 $-1 $335 $335 $280 $353 reversed $269 $-1 #
-353 edge $-1 -1 -1 $-1 $357 -3.1415926535897931 $359 0 $280 $424 forward @7 unknown F #
-354 coedge $-1 -1 -1 $-1 $283 $281 $285 $361 reversed $356 $-1 #
-355 coedge $-1 -1 -1 $-1 $281 $283 $335 $401 forward $356 $-1 #
-356 loop $-1 -1 -1 $-1 $-1 $281 $328 F unknown #
-357 vertex $-1 -1 -1 $-1 $282 $425 #
-358 straight-curve $-1 -1 -1 $-1 18.750000000000004 190.25000000001472 6.2882374973414076e-014 0 3.350556246434648e-013 -1000 I I #
-359 vertex $-1 -1 -1 $-1 $353 $426 #
-360 straight-curve $-1 -1 -1 $-1 25.249999999999993 190.25000000001472 6.2882374973414076e-014 0 3.350556246434648e-013 -1000 I I #
-361 edge $-1 -1 -1 $-1 $288 0 $287 3.1415926535897931 $285 $427 forward @7 unknown F #
-362 point $-1 -1 -1 $-1 18.750000000000004 190.25000000001472 2.0000000000000648 #
-363 point $-1 -1 -1 $-1 25.249999999999993 190.25000000001472 2.0000000000000648 #
-364 coedge $-1 -1 -1 $-1 $290 $290 $293 $366 reversed $311 $-1 #
-365 ellipse-curve $-1 -1 -1 $-1 8 204.25000000001469 2.0000000000000648 0 3.3505562464346481e-016 -1 1.7000000000000002 0 0 1 I I #
-366 edge $-1 -1 -1 $-1 $297 0 $295 3.1415926535897931 $293 $428 forward @7 unknown F #
-367 face $429 -1 -1 $-1 $247 $294 $4 $-1 $430 reversed single F T -3.5294117647058432 -1.176470588235295 -1.1825492634475103e-015 3.141592653589794 #
-368 point $-1 -1 -1 $-1 6.3000000000000007 204.25000000001469 2.0000000000000648 #
-369 point $-1 -1 -1 $-1 9.7000000000000011 204.25000000001469 2.0000000000000648 #
-370 ellipse-curve $-1 -1 -1 $-1 8 204.25000000001469 5.9999999999999973 0 -3.3505562464346481e-016 1 -1.7000000000000002 -0 0 1 I I #
-371 loop $-1 -1 -1 $-1 $-1 $431 $301 F unknown #
-372 integer_attrib-name_attrib-gen-attrib $-1 -1 $-1 $-1 $301 2 1 2 1 1 1 1 1 1 1 1 1 1 1 0 1 1 1 @18 CBORE for M3 SHCS3 0 #
-373 face $432 -1 -1 $-1 $433 $434 $4 $-1 $435 forward single F F #
-374 plane-surface $-1 -1 -1 $-1 30 182.75000000001469 5.9999999999999902 0 -3.3505562464346481e-016 1 -1000 -0 0 forward_v I I I I #
-375 ellipse-curve $-1 -1 -1 $-1 8 204.25000000001469 6.2882374973414076e-014 0 3.3505562464346481e-016 -1 3.249999999999996 0 0 1 I I #
-376 integer_attrib-name_attrib-gen-attrib $-1 -1 $-1 $-1 $306 2 1 2 1 1 1 1 1 1 1 1 1 1 1 0 1 1 1 @18 CBORE for M3 SHCS3 0 #
-377 cone-surface $-1 -1 -1 $-1 8 204.25000000001469 6.2882374973414076e-014 0 3.3505562464346481e-016 -1 3.249999999999996 0 0 1 I I 0 1 3.249999999999996 forward I I I I #
-378 coedge $-1 -1 -1 $-1 $436 $437 $316 $379 reversed $273 $-1 #
-379 edge $-1 -1 -1 $-1 $383 0.00075000000000000002 $386 0.030500000000000114 $316 $438 forward @7 unknown F #
-380 coedge $-1 -1 -1 $-1 $439 $317 $322 $389 reversed $382 $-1 #
-381 coedge $-1 -1 -1 $-1 $317 $439 $436 $440 forward $382 $-1 #
-382 loop $-1 -1 -1 $-1 $-1 $380 $433 F unknown #
-383 vertex $-1 -1 -1 $-1 $318 $441 #
-384 straight-curve $-1 -1 -1 $-1 30 0 5.9999999999999822 -1000 -0 0 I I #
-385 coedge $-1 -1 -1 $-1 $332 $319 $437 $442 forward $213 $-1 #
-386 vertex $-1 -1 -1 $-1 $320 $443 #
-387 straight-curve $-1 -1 -1 $-1 30 29.750000000000114 5.9999999999999929 -1000 -0 0 I I #
-388 coedge $-1 -1 -1 $-1 $322 $444 $445 $446 forward $323 $-1 #
-389 edge $-1 -1 -1 $-1 $447 -0.0059999999999999819 $324 0 $322 $448 forward @7 unknown F #
-390 point $-1 -1 -1 $-1 0 0 5.9999999999999822 #
-391 point $-1 -1 -1 $-1 0 29.750000000000114 5.9999999999999929 #
-392 integer_attrib-name_attrib-gen-attrib $-1 -1 $-1 $-1 $328 2 1 2 1 1 1 1 1 1 1 1 1 1 1 0 1 1 1 @18 CBORE for M3 SHCS3 0 #
-393 cone-surface $-1 -1 -1 $-1 22 190.25000000001472 6.2882374973414076e-014 0 3.3505562464346481e-016 -1 3.249999999999996 0 0 1 I I 0 1 3.249999999999996 forward I I I I #
-394 coedge $-1 -1 -1 $-1 $415 $415 $396 $449 reversed $329 $-1 #
-395 coedge $-1 -1 -1 $-1 $346 $331 $348 $421 forward $266 $-1 #
-396 coedge $-1 -1 -1 $-1 $331 $346 $394 $449 forward $266 $-1 #
-397 edge $-1 -1 -1 $-1 $450 0 $398 0.029999999999999999 $332 $451 forward @7 unknown F #
-398 vertex $-1 -1 -1 $-1 $343 $452 #
-399 straight-curve $-1 -1 -1 $-1 0 29.750000000000114 12.999999999999993 0 -3.350556246434648e-013 1000 I I #
-400 coedge $-1 -1 -1 $-1 $453 $454 $455 $456 forward $334 $-1 #
-401 edge $-1 -1 -1 $-1 $359 0 $357 3.1415926535897931 $355 $457 forward @7 unknown F #
-402 integer_attrib-name_attrib-gen-attrib $-1 -1 $-1 $-1 $337 2 1 2 1 1 1 1 1 1 1 1 1 1 1 0 1 1 1 @18 CBORE for M3 SHCS3 0 #
-403 loop $-1 -1 -1 $-1 $-1 $458 $337 F unknown #
-404 plane-surface $-1 -1 -1 $-1 30 212.00000000001469 6 0 1 3.3505562464346481e-016 -1000 -0 0 forward_v I I I I #
-405 coedge $-1 -1 -1 $-1 $459 $339 $460 $461 reversed $273 $-1 #
-406 coedge $-1 -1 -1 $-1 $339 $455 $462 $463 reversed $273 $-1 #
-407 coedge $-1 -1 -1 $-1 $464 $465 $339 $408 forward $371 $-1 #
-408 edge $-1 -1 -1 $-1 $466 -0.00050000000000000001 $467 0.029250000000000002 $407 $468 forward @7 unknown F #
-409 coedge $-1 -1 -1 $-1 $341 $340 $459 $469 forward $220 $-1 #
-410 coedge $-1 -1 -1 $-1 $460 $470 $341 $411 reversed $434 $-1 #
-411 edge $-1 -1 -1 $-1 $471 0 $413 0.029999999999999999 $341 $472 forward @7 unknown F #
-412 coedge $-1 -1 -1 $-1 $473 $342 $470 $474 forward $323 $-1 #
-413 vertex $-1 -1 -1 $-1 $343 $475 #
-414 straight-curve $-1 -1 -1 $-1 0 182.75000000001469 13.000000000000044 0 1000 3.350556246434648e-013 I I #
-415 coedge $-1 -1 -1 $-1 $394 $394 $344 $416 reversed $329 $-1 #
-416 edge $-1 -1 -1 $-1 $417 -3.1415926535897931 $419 0 $344 $476 forward @7 unknown F #
-417 vertex $-1 -1 -1 $-1 $345 $477 #
-418 straight-curve $-1 -1 -1 $-1 20.299999999999997 190.25000000001472 6.2882374973414076e-014 0 3.350556246434648e-013 -1000 I I #
-419 vertex $-1 -1 -1 $-1 $416 $478 #
-420 straight-curve $-1 -1 -1 $-1 23.699999999999999 190.25000000001472 6.2882374973414076e-014 0 3.350556246434648e-013 -1000 I I #
-421 edge $-1 -1 -1 $-1 $350 -0 $349 3.1415926535897931 $395 $479 forward @7 unknown F #
-422 point $-1 -1 -1 $-1 23.699999999999999 190.25000000001472 5.9999999999999929 #
-423 point $-1 -1 -1 $-1 20.299999999999997 190.25000000001472 5.9999999999999929 #
-424 ellipse-curve $-1 -1 -1 $-1 22 190.25000000001472 6.2882374973414076e-014 0 3.3505562464346481e-016 -1 3.249999999999996 0 0 1 I I #
-425 point $-1 -1 -1 $-1 18.750000000000004 190.25000000001472 6.2882374973414076e-014 #
-426 point $-1 -1 -1 $-1 25.249999999999993 190.25000000001472 6.2882374973414076e-014 #
-427 ellipse-curve $-1 -1 -1 $-1 22 190.25000000001472 2.0000000000000648 0 3.3505562464346481e-016 -1 3.249999999999996 0 0 1 I I #
-428 ellipse-curve $-1 -1 -1 $-1 8 204.25000000001469 2.0000000000000648 0 3.3505562464346481e-016 -1 1.7000000000000002 0 0 1 I I #
-429 integer_attrib-name_attrib-gen-attrib $-1 -1 $-1 $-1 $367 2 1 2 1 1 1 1 1 1 1 1 1 1 1 0 1 1 1 @18 CBORE for M3 SHCS3 0 #
-430 cone-surface $-1 -1 -1 $-1 8 204.25000000001469 6.2882374973414076e-014 0 3.3505562464346481e-016 -1 1.7000000000000002 0 0 1 I I 0 1 1.7000000000000002 forward I I I I #
-431 coedge $-1 -1 -1 $-1 $465 $464 $473 $480 reversed $371 $-1 #
-432 integer_attrib-name_attrib-gen-attrib $-1 -1 $-1 $-1 $373 2 1 2 1 1 1 1 1 1 1 1 1 1 1 0 1 1 1 @18 CBORE for M3 SHCS3 0 #
-433 face $481 -1 -1 $-1 $105 $382 $4 $-1 $482 forward single F F #
-434 loop $-1 -1 -1 $-1 $-1 $470 $373 F unknown #
-435 plane-surface $-1 -1 -1 $-1 30 182.25000000001469 13.000000000000046 -0 1 -1.6474854907585855e-015 0 -1.6474854907585854e-012 -1000 forward_v I I I I #
-436 coedge $-1 -1 -1 $-1 $455 $378 $381 $440 reversed $273 $-1 #
-437 coedge $-1 -1 -1 $-1 $378 $459 $385 $442 reversed $273 $-1 #
-438 straight-curve $-1 -1 -1 $-1 30 -0.75 5.9999999999999822 0 1000 3.350556246434648e-013 I I #
-439 coedge $-1 -1 -1 $-1 $381 $380 $453 $483 reversed $382 $-1 #
-440 edge $-1 -1 -1 $-1 $484 -0.0059999999999999819 $383 0 $381 $485 forward @7 unknown F #
-441 point $-1 -1 -1 $-1 30 0 5.9999999999999822 #
-442 edge $-1 -1 -1 $-1 $386 -0.0070000000000000001 $450 0 $385 $486 forward @7 unknown F #
-443 point $-1 -1 -1 $-1 30 29.750000000000114 5.9999999999999929 #
-444 coedge $-1 -1 -1 $-1 $388 $473 $458 $487 forward $323 $-1 #
-445 coedge $-1 -1 -1 $-1 $454 $453 $388 $446 reversed $334 $-1 #
-446 edge $-1 -1 -1 $-1 $488 -0.15975000000001469 $447 0.052249999999999998 $388 $489 forward @7 unknown F #
-447 vertex $-1 -1 -1 $-1 $446 $490 #
-448 straight-curve $-1 -1 -1 $-1 0 0 5.9999999999999822 0 -3.350556246434648e-013 1000 I I #
-449 edge $-1 -1 -1 $-1 $419 0 $417 3.1415926535897931 $396 $491 forward @7 unknown F #
-450 vertex $-1 -1 -1 $-1 $469 $492 #
-451 straight-curve $-1 -1 -1 $-1 30 29.750000000000114 12.999999999999993 -1000 0 0 I I #
-452 point $-1 -1 -1 $-1 0 29.750000000000114 12.999999999999993 #
-453 coedge $-1 -1 -1 $-1 $445 $400 $439 $483 forward $334 $-1 #
-454 coedge $-1 -1 -1 $-1 $400 $445 $493 $494 reversed $334 $-1 #
-455 coedge $-1 -1 -1 $-1 $406 $436 $400 $456 reversed $273 $-1 #
-456 edge $-1 -1 -1 $-1 $495 -0.15975000000001469 $484 0.052249999999999998 $400 $496 forward @7 unknown F #
-457 ellipse-curve $-1 -1 -1 $-1 22 190.25000000001472 6.2882374973414076e-014 0 3.3505562464346481e-016 -1 3.249999999999996 0 0 1 I I #
-458 coedge $-1 -1 -1 $-1 $497 $493 $444 $487 reversed $403 $-1 #
-459 coedge $-1 -1 -1 $-1 $437 $405 $409 $469 reversed $273 $-1 #
-460 coedge $-1 -1 -1 $-1 $498 $410 $405 $461 forward $434 $-1 #
-461 edge $-1 -1 -1 $-1 $471 1.7763568394002505e-018 $466 0.0070000000000000557 $460 $499 forward @7 unknown F #
-462 coedge $-1 -1 -1 $-1 $493 $497 $406 $463 forward $403 $-1 #
-463 edge $-1 -1 -1 $-1 $467 0 $495 0.0060000000000000001 $462 $500 forward @7 unknown F #
-464 coedge $-1 -1 -1 $-1 $431 $407 $497 $501 forward $371 $-1 #
-465 coedge $-1 -1 -1 $-1 $407 $431 $498 $502 reversed $371 $-1 #
-466 vertex $-1 -1 -1 $-1 $502 $503 #
-467 vertex $-1 -1 -1 $-1 $501 $504 #
-468 straight-curve $-1 -1 -1 $-1 30 182.75000000001469 5.9999999999999902 0 1000 3.350556246434648e-013 I I #
-469 edge $-1 -1 -1 $-1 $450 -0.15300000000001457 $471 -0.00050000000000000001 $409 $505 forward @7 unknown F #
-470 coedge $-1 -1 -1 $-1 $410 $498 $412 $474 reversed $434 $-1 #
-471 vertex $-1 -1 -1 $-1 $469 $506 #
-472 straight-curve $-1 -1 -1 $-1 30 182.25000000001469 13.000000000000044 -1000 -0 0 I I #
-473 coedge $-1 -1 -1 $-1 $444 $412 $431 $480 forward $323 $-1 #
-474 edge $-1 -1 -1 $-1 $413 1.7763568394002505e-018 $507 0.0070000000000000557 $412 $508 forward @7 unknown F #
-475 point $-1 -1 -1 $-1 0 182.25000000001469 13.000000000000044 #
-476 ellipse-curve $-1 -1 -1 $-1 22 190.25000000001472 2.0000000000000648 0 3.3505562464346481e-016 -1 1.7000000000000002 0 0 1 I I #
-477 point $-1 -1 -1 $-1 20.299999999999997 190.25000000001472 2.0000000000000648 #
-478 point $-1 -1 -1 $-1 23.699999999999999 190.25000000001472 2.0000000000000648 #
-479 ellipse-curve $-1 -1 -1 $-1 22 190.25000000001472 5.9999999999999929 0 -3.3505562464346481e-016 1 -1.7000000000000002 -0 0 1 I I #
-480 edge $-1 -1 -1 $-1 $507 -0.00050000000000000001 $509 0.029250000000000002 $473 $510 forward @7 unknown F #
-481 integer_attrib-name_attrib-gen-attrib $-1 -1 $-1 $-1 $433 2 1 2 1 1 1 1 1 1 1 1 1 1 1 0 1 1 1 @18 CBORE for M3 SHCS3 0 #
-482 plane-surface $-1 -1 -1 $-1 30 0 5.9999999999999822 0 -1 -3.3505562464346481e-016 1000 0 0 forward_v I I I I #
-483 edge $-1 -1 -1 $-1 $484 0 $447 0.029999999999999999 $453 $511 forward @7 unknown F #
-484 vertex $-1 -1 -1 $-1 $456 $512 #
-485 straight-curve $-1 -1 -1 $-1 30 0 5.9999999999999822 0 -3.350556246434648e-013 1000 I I #
-486 straight-curve $-1 -1 -1 $-1 30 29.750000000000114 12.999999999999993 0 -3.350556246434648e-013 1000 I I #
-487 edge $-1 -1 -1 $-1 $509 0 $488 0.0060000000000000001 $444 $513 forward @7 unknown F #
-488 vertex $-1 -1 -1 $-1 $494 $514 #
-489 straight-curve $-1 -1 -1 $-1 0 52.25 1.2621774483536189e-029 0 -1000 -4.9303806576313238e-029 I I #
-490 point $-1 -1 -1 $-1 0 0 0 #
-491 ellipse-curve $-1 -1 -1 $-1 22 190.25000000001472 2.0000000000000648 0 3.3505562464346481e-016 -1 1.7000000000000002 0 0 1 I I #
-492 point $-1 -1 -1 $-1 30 29.750000000000114 12.999999999999993 #
-493 coedge $-1 -1 -1 $-1 $458 $462 $454 $494 forward $403 $-1 #
-494 edge $-1 -1 -1 $-1 $495 0 $488 0.029999999999999999 $493 $515 forward @7 unknown F #
-495 vertex $-1 -1 -1 $-1 $494 $516 #
-496 straight-curve $-1 -1 -1 $-1 30 52.25 1.2621774483536189e-029 0 -1000 -4.9303806576313238e-029 I I #
-497 coedge $-1 -1 -1 $-1 $462 $458 $464 $501 reversed $403 $-1 #
-498 coedge $-1 -1 -1 $-1 $470 $460 $465 $502 forward $434 $-1 #
-499 straight-curve $-1 -1 -1 $-1 30 182.25000000001469 13.000000000000046 0 -1.6474854907585854e-012 -1000 I I #
-500 straight-curve $-1 -1 -1 $-1 30 212.00000000001469 6 0 3.350556246434648e-013 -1000 I I #
-501 edge $-1 -1 -1 $-1 $467 0 $509 0.029999999999999999 $464 $517 forward @7 unknown F #
-502 edge $-1 -1 -1 $-1 $466 0 $507 0.029999999999999999 $498 $518 forward @7 unknown F #
-503 point $-1 -1 -1 $-1 30 182.25000000001469 5.9999999999999902 #
-504 point $-1 -1 -1 $-1 30 212.00000000001469 6 #
-505 straight-curve $-1 -1 -1 $-1 30 182.75000000001469 13.000000000000044 0 1000 3.350556246434648e-013 I I #
-506 point $-1 -1 -1 $-1 30 182.25000000001469 13.000000000000044 #
-507 vertex $-1 -1 -1 $-1 $502 $519 #
-508 straight-curve $-1 -1 -1 $-1 0 182.25000000001469 13.000000000000046 0 -1.6474854907585854e-012 -1000 I I #
-509 vertex $-1 -1 -1 $-1 $501 $520 #
-510 straight-curve $-1 -1 -1 $-1 0 182.75000000001469 5.9999999999999902 0 1000 3.350556246434648e-013 I I #
-511 straight-curve $-1 -1 -1 $-1 30 0 0 -1000 -0 0 I I #
-512 point $-1 -1 -1 $-1 30 0 0 #
-513 straight-curve $-1 -1 -1 $-1 0 212.00000000001469 6 0 3.350556246434648e-013 -1000 I I #
-514 point $-1 -1 -1 $-1 0 212.00000000001469 1.2621774483536189e-029 #
-515 straight-curve $-1 -1 -1 $-1 30 212.00000000001469 -2.5129171848257228e-016 -1000 -0 0 I I #
-516 point $-1 -1 -1 $-1 30 212.00000000001469 1.2621774483536189e-029 #
-517 straight-curve $-1 -1 -1 $-1 30 212.00000000001469 6 -1000 -0 0 I I #
-518 straight-curve $-1 -1 -1 $-1 30 182.25000000001469 5.9999999999999902 -1000 -0 0 I I #
-519 point $-1 -1 -1 $-1 0 182.25000000001469 5.9999999999999902 #
-520 point $-1 -1 -1 $-1 0 212.00000000001469 6 #
End-of-ACIS-data 